<svg width="114" height="28" viewBox="0 0 114 28" fill="none" xmlns="http://www.w3.org/2000/svg">
<path d="M6.632 7.56H0.08V3.024H18.368V7.56H11.888V27H6.632V7.56ZM27.6661 27.54C24.6661 27.54 22.3021 26.676 20.5741 24.948C18.8701 23.22 18.0181 20.82 18.0181 17.748C18.0181 15.756 18.3901 14.028 19.1341 12.564C19.8781 11.076 20.9221 9.936 22.2661 9.144C23.6341 8.352 25.2301 7.956 27.0541 7.956C29.7421 7.956 31.8061 8.82 33.2461 10.548C34.6861 12.276 35.4061 14.772 35.4061 18.036C35.4061 18.588 35.3941 18.996 35.3701 19.26H23.1301C23.3701 20.532 23.9221 21.504 24.7861 22.176C25.6501 22.824 26.8141 23.148 28.2781 23.148C29.1661 23.148 30.0901 23.04 31.0501 22.824C32.0101 22.584 32.8501 22.272 33.5701 21.888L34.3981 25.956C33.4381 26.46 32.3701 26.844 31.1941 27.108C30.0421 27.396 28.8661 27.54 27.6661 27.54ZM30.5461 15.444C30.4741 14.412 30.1141 13.596 29.4661 12.996C28.8181 12.372 27.9541 12.06 26.8741 12.06C25.8421 12.06 24.9901 12.36 24.3181 12.96C23.6701 13.56 23.2621 14.388 23.0941 15.444H30.5461ZM48.0191 27.54C44.9471 27.54 42.5591 26.724 40.8551 25.092C39.1751 23.46 38.3351 21.156 38.3351 18.18C38.3351 16.164 38.7311 14.388 39.5231 12.852C40.3151 11.292 41.4311 10.092 42.8711 9.252C44.3111 8.388 45.9791 7.956 47.8751 7.956C48.7631 7.956 49.6871 8.064 50.6471 8.28C51.6311 8.472 52.3871 8.7 52.9151 8.964L51.9431 13.248C51.3911 12.984 50.7791 12.78 50.1071 12.636C49.4591 12.468 48.8471 12.384 48.2711 12.384C46.7831 12.384 45.5831 12.888 44.6711 13.896C43.7831 14.904 43.3391 16.236 43.3391 17.892C43.3391 19.572 43.7951 20.868 44.7071 21.78C45.6431 22.692 46.9631 23.148 48.6671 23.148C49.7951 23.148 51.0071 22.932 52.3031 22.5L53.0591 26.604C51.4991 27.228 49.8191 27.54 48.0191 27.54ZM61.9679 7.56H55.4159V3.024H73.7039V7.56H67.2239V27H61.9679V7.56ZM82.8221 27.54C80.9501 27.54 79.2941 27.132 77.8541 26.316C76.4381 25.5 75.3341 24.36 74.5421 22.896C73.7501 21.408 73.3541 19.692 73.3541 17.748C73.3541 15.804 73.7381 14.1 74.5061 12.636C75.2981 11.148 76.4021 9.996 77.8181 9.18C79.2581 8.364 80.9141 7.956 82.7861 7.956C84.6581 7.956 86.3021 8.364 87.7181 9.18C89.1581 9.972 90.2621 11.1 91.0301 12.564C91.8221 14.028 92.2181 15.72 92.2181 17.64C92.2181 19.584 91.8221 21.312 91.0301 22.824C90.2621 24.312 89.1581 25.476 87.7181 26.316C86.3021 27.132 84.6701 27.54 82.8221 27.54ZM82.7861 23.148C84.0821 23.148 85.1141 22.656 85.8821 21.672C86.6741 20.664 87.0701 19.344 87.0701 17.712C87.0701 16.08 86.6741 14.784 85.8821 13.824C85.1141 12.84 84.0821 12.348 82.7861 12.348C81.4901 12.348 80.4461 12.84 79.6541 13.824C78.8861 14.784 78.5021 16.08 78.5021 17.712C78.5021 19.344 78.8861 20.664 79.6541 21.672C80.4461 22.656 81.4901 23.148 82.7861 23.148ZM101.057 18.936V27H95.9806V0.684H101.057V15.228L106.853 8.46H112.865L105.449 16.776L113.261 26.784L107.753 27.54L101.057 18.936Z" fill="white"/>
</svg>
