<svg width="212" height="50" viewBox="0 0 212 50" fill="none" xmlns="http://www.w3.org/2000/svg">
<mask id="mask0" mask-type="alpha" maskUnits="userSpaceOnUse" x="0" y="0" width="31" height="50">
<rect width="31" height="50" fill="#C4C4C4"/>
</mask>
<g mask="url(#mask0)">
<path d="M44.0476 0H5.95238C2.67024 0 0 2.67024 0 5.95238V44.0476C0 47.3298 2.67024 50 5.95238 50H44.0476C47.3298 50 50 47.3298 50 44.0476V5.95238C50 2.67024 47.3298 0 44.0476 0ZM39.2929 21.8131C39.0226 21.8381 38.7488 21.8548 38.4714 21.8548C35.3488 21.8548 32.6048 20.2488 31.0083 17.8214C31.0083 24.1893 31.0083 31.4345 31.0083 31.556C31.0083 37.1619 26.4631 41.7071 20.8571 41.7071C15.2512 41.7071 10.706 37.1619 10.706 31.556C10.706 25.95 15.2512 21.4048 20.8571 21.4048C21.069 21.4048 21.2762 21.4238 21.4845 21.4369V26.4393C21.2762 26.4143 21.0714 26.3762 20.8571 26.3762C17.9952 26.3762 15.6762 28.6952 15.6762 31.5571C15.6762 34.419 17.9952 36.7381 20.8571 36.7381C23.719 36.7381 26.2464 34.4833 26.2464 31.6214C26.2464 31.5083 26.2964 8.29524 26.2964 8.29524H31.0774C31.5274 12.5702 34.9786 15.944 39.2929 16.2536V21.8131Z" fill="#010101"/>
</g>
<rect x="31" width="8" height="50" fill="#010101"/>
<path d="M95.2857 0H38.1429C34.2143 0 31.0357 3.21429 31.0357 7.14286L31 42.8571C31 46.7857 34.2143 50 38.1429 50H95.2857C99.2143 50 102.429 46.7857 102.429 42.8571V7.14286C102.429 3.21429 99.2143 0 95.2857 0ZM63.1429 10.7143H70.2857V17.8571H63.1429V10.7143ZM63.1429 21.4286H70.2857V28.5714H63.1429V21.4286ZM52.4286 10.7143H59.5714V17.8571H52.4286V10.7143ZM52.4286 21.4286H59.5714V28.5714H52.4286V21.4286ZM48.8571 28.5714H41.7143V21.4286H48.8571V28.5714ZM48.8571 17.8571H41.7143V10.7143H48.8571V17.8571ZM77.4286 42.8571H56C54.0357 42.8571 52.4286 41.25 52.4286 39.2857C52.4286 37.3214 54.0357 35.7143 56 35.7143H77.4286C79.3929 35.7143 81 37.3214 81 39.2857C81 41.25 79.3929 42.8571 77.4286 42.8571ZM81 28.5714H73.8571V21.4286H81V28.5714ZM81 17.8571H73.8571V10.7143H81V17.8571ZM91.7143 28.5714H84.5714V21.4286H91.7143V28.5714ZM91.7143 17.8571H84.5714V10.7143H91.7143V17.8571Z" fill="#010101"/>
<path d="M147.647 40.92H145.791V46H145.019V40.92H143.159V40.268H147.647V40.92ZM152.034 45.368L152.03 46H148.498V40.268H152.03V40.9H149.274V42.804H151.506V43.412H149.274V45.368H152.034ZM157.014 44.816C157.056 44.816 157.094 44.8333 157.126 44.868L157.434 45.2C157.199 45.472 156.914 45.684 156.578 45.836C156.244 45.988 155.84 46.064 155.366 46.064C154.955 46.064 154.582 45.9933 154.246 45.852C153.91 45.708 153.623 45.508 153.386 45.252C153.148 44.9933 152.964 44.684 152.834 44.324C152.703 43.964 152.638 43.568 152.638 43.136C152.638 42.704 152.706 42.308 152.842 41.948C152.978 41.588 153.168 41.2787 153.414 41.02C153.662 40.7613 153.958 40.5613 154.302 40.42C154.646 40.276 155.026 40.204 155.442 40.204C155.85 40.204 156.21 40.2693 156.522 40.4C156.834 40.5307 157.108 40.708 157.346 40.932L157.09 41.288C157.074 41.3147 157.052 41.3373 157.026 41.356C157.002 41.372 156.968 41.38 156.926 41.38C156.878 41.38 156.819 41.3547 156.75 41.304C156.68 41.2507 156.59 41.192 156.478 41.128C156.366 41.064 156.226 41.0067 156.058 40.956C155.89 40.9027 155.683 40.876 155.438 40.876C155.142 40.876 154.871 40.928 154.626 41.032C154.38 41.1333 154.168 41.2813 153.99 41.476C153.814 41.6707 153.676 41.908 153.578 42.188C153.479 42.468 153.43 42.784 153.43 43.136C153.43 43.4933 153.48 43.812 153.582 44.092C153.686 44.372 153.826 44.6093 154.002 44.804C154.18 44.996 154.39 45.1427 154.63 45.244C154.872 45.3453 155.134 45.396 155.414 45.396C155.584 45.396 155.738 45.3867 155.874 45.368C156.012 45.3467 156.139 45.3147 156.254 45.272C156.371 45.2293 156.479 45.176 156.578 45.112C156.679 45.0453 156.779 44.9667 156.878 44.876C156.923 44.836 156.968 44.816 157.014 44.816ZM161.586 45.348V46H158.334V40.268H159.106V45.348H161.586ZM165.487 43.872L164.587 41.54C164.56 41.4707 164.532 41.3907 164.503 41.3C164.474 41.2067 164.446 41.108 164.419 41.004C164.363 41.22 164.306 41.4 164.247 41.544L163.347 43.872H165.487ZM167.103 46H166.503C166.434 46 166.378 45.9827 166.335 45.948C166.292 45.9133 166.26 45.8693 166.239 45.816L165.703 44.432H163.131L162.595 45.816C162.579 45.864 162.548 45.9067 162.503 45.944C162.458 45.9813 162.402 46 162.335 46H161.735L164.027 40.268H164.811L167.103 46ZM172.825 43.136C172.825 43.5653 172.757 43.956 172.621 44.308C172.485 44.66 172.293 44.9613 172.045 45.212C171.797 45.4627 171.498 45.6573 171.149 45.796C170.802 45.932 170.418 46 169.997 46H167.857V40.268H169.997C170.418 40.268 170.802 40.3373 171.149 40.476C171.498 40.612 171.797 40.8067 172.045 41.06C172.293 41.3107 172.485 41.612 172.621 41.964C172.757 42.316 172.825 42.7067 172.825 43.136ZM172.029 43.136C172.029 42.784 171.981 42.4693 171.885 42.192C171.789 41.9147 171.653 41.68 171.477 41.488C171.301 41.296 171.088 41.1493 170.837 41.048C170.586 40.9467 170.306 40.896 169.997 40.896H168.633V45.372H169.997C170.306 45.372 170.586 45.3213 170.837 45.22C171.088 45.1187 171.301 44.9733 171.477 44.784C171.653 44.592 171.789 44.3573 171.885 44.08C171.981 43.8027 172.029 43.488 172.029 43.136ZM179.239 43.136C179.239 43.5653 179.171 43.96 179.035 44.32C178.899 44.6773 178.707 44.9853 178.459 45.244C178.211 45.5027 177.912 45.704 177.563 45.848C177.216 45.9893 176.832 46.06 176.411 46.06C175.99 46.06 175.606 45.9893 175.259 45.848C174.912 45.704 174.615 45.5027 174.367 45.244C174.119 44.9853 173.927 44.6773 173.791 44.32C173.655 43.96 173.587 43.5653 173.587 43.136C173.587 42.7067 173.655 42.3133 173.791 41.956C173.927 41.596 174.119 41.2867 174.367 41.028C174.615 40.7667 174.912 40.564 175.259 40.42C175.606 40.276 175.99 40.204 176.411 40.204C176.832 40.204 177.216 40.276 177.563 40.42C177.912 40.564 178.211 40.7667 178.459 41.028C178.707 41.2867 178.899 41.596 179.035 41.956C179.171 42.3133 179.239 42.7067 179.239 43.136ZM178.443 43.136C178.443 42.784 178.395 42.468 178.299 42.188C178.203 41.908 178.067 41.672 177.891 41.48C177.715 41.2853 177.502 41.136 177.251 41.032C177 40.928 176.72 40.876 176.411 40.876C176.104 40.876 175.826 40.928 175.575 41.032C175.324 41.136 175.11 41.2853 174.931 41.48C174.755 41.672 174.619 41.908 174.523 42.188C174.427 42.468 174.379 42.784 174.379 43.136C174.379 43.488 174.427 43.804 174.523 44.084C174.619 44.3613 174.755 44.5973 174.931 44.792C175.11 44.984 175.324 45.132 175.575 45.236C175.826 45.3373 176.104 45.388 176.411 45.388C176.72 45.388 177 45.3373 177.251 45.236C177.502 45.132 177.715 44.984 177.891 44.792C178.067 44.5973 178.203 44.3613 178.299 44.084C178.395 43.804 178.443 43.488 178.443 43.136ZM183.281 41.164C183.257 41.204 183.231 41.2347 183.201 41.256C183.175 41.2747 183.141 41.284 183.101 41.284C183.056 41.284 183.003 41.2613 182.941 41.216C182.88 41.1707 182.803 41.1213 182.709 41.068C182.619 41.012 182.508 40.9613 182.377 40.916C182.249 40.8707 182.093 40.848 181.909 40.848C181.736 40.848 181.583 40.872 181.449 40.92C181.319 40.9653 181.208 41.028 181.117 41.108C181.029 41.188 180.963 41.2827 180.917 41.392C180.872 41.4987 180.849 41.6147 180.849 41.74C180.849 41.9 180.888 42.0333 180.965 42.14C181.045 42.244 181.149 42.3333 181.277 42.408C181.408 42.4827 181.555 42.548 181.717 42.604C181.883 42.6573 182.051 42.7133 182.221 42.772C182.395 42.8307 182.563 42.8973 182.725 42.972C182.891 43.044 183.037 43.136 183.165 43.248C183.296 43.36 183.4 43.4973 183.477 43.66C183.557 43.8227 183.597 44.0227 183.597 44.26C183.597 44.5107 183.555 44.7467 183.469 44.968C183.384 45.1867 183.259 45.3773 183.093 45.54C182.931 45.7027 182.729 45.8307 182.489 45.924C182.252 46.0173 181.981 46.064 181.677 46.064C181.304 46.064 180.965 45.9973 180.661 45.864C180.357 45.728 180.097 45.5453 179.881 45.316L180.105 44.948C180.127 44.9187 180.152 44.8947 180.181 44.876C180.213 44.8547 180.248 44.844 180.285 44.844C180.32 44.844 180.359 44.8587 180.401 44.888C180.447 44.9147 180.497 44.9493 180.553 44.992C180.609 45.0347 180.673 45.0813 180.745 45.132C180.817 45.1827 180.899 45.2293 180.989 45.272C181.083 45.3147 181.188 45.3507 181.305 45.38C181.423 45.4067 181.555 45.42 181.701 45.42C181.885 45.42 182.049 45.3947 182.193 45.344C182.337 45.2933 182.459 45.2227 182.557 45.132C182.659 45.0387 182.736 44.928 182.789 44.8C182.843 44.672 182.869 44.5293 182.869 44.372C182.869 44.1987 182.829 44.0573 182.749 43.948C182.672 43.836 182.569 43.7427 182.441 43.668C182.313 43.5933 182.167 43.5307 182.001 43.48C181.836 43.4267 181.668 43.3733 181.497 43.32C181.327 43.264 181.159 43.2 180.993 43.128C180.828 43.056 180.681 42.9627 180.553 42.848C180.425 42.7333 180.321 42.5907 180.241 42.42C180.164 42.2467 180.125 42.0333 180.125 41.78C180.125 41.5773 180.164 41.3813 180.241 41.192C180.321 41.0027 180.436 40.8347 180.585 40.688C180.737 40.5413 180.923 40.424 181.141 40.336C181.363 40.248 181.616 40.204 181.901 40.204C182.221 40.204 182.512 40.2547 182.773 40.356C183.037 40.4573 183.269 40.604 183.469 40.796L183.281 41.164Z" fill="#010101"/>
<path d="M122.36 16.8H116.9V13.02H132.14V16.8H126.74V33H122.36V16.8ZM139.888 33.45C137.388 33.45 135.418 32.73 133.978 31.29C132.558 29.85 131.848 27.85 131.848 25.29C131.848 23.63 132.158 22.19 132.778 20.97C133.398 19.73 134.268 18.78 135.388 18.12C136.528 17.46 137.858 17.13 139.378 17.13C141.618 17.13 143.338 17.85 144.538 19.29C145.738 20.73 146.338 22.81 146.338 25.53C146.338 25.99 146.328 26.33 146.308 26.55H136.108C136.308 27.61 136.768 28.42 137.488 28.98C138.208 29.52 139.178 29.79 140.398 29.79C141.138 29.79 141.908 29.7 142.708 29.52C143.508 29.32 144.208 29.06 144.808 28.74L145.498 32.13C144.698 32.55 143.808 32.87 142.828 33.09C141.868 33.33 140.888 33.45 139.888 33.45ZM142.288 23.37C142.228 22.51 141.928 21.83 141.388 21.33C140.848 20.81 140.128 20.55 139.228 20.55C138.368 20.55 137.658 20.8 137.098 21.3C136.558 21.8 136.218 22.49 136.078 23.37H142.288ZM156.849 33.45C154.289 33.45 152.299 32.77 150.879 31.41C149.479 30.05 148.779 28.13 148.779 25.65C148.779 23.97 149.109 22.49 149.769 21.21C150.429 19.91 151.359 18.91 152.559 18.21C153.759 17.49 155.149 17.13 156.729 17.13C157.469 17.13 158.239 17.22 159.039 17.4C159.859 17.56 160.489 17.75 160.929 17.97L160.119 21.54C159.659 21.32 159.149 21.15 158.589 21.03C158.049 20.89 157.539 20.82 157.059 20.82C155.819 20.82 154.819 21.24 154.059 22.08C153.319 22.92 152.949 24.03 152.949 25.41C152.949 26.81 153.329 27.89 154.089 28.65C154.869 29.41 155.969 29.79 157.389 29.79C158.329 29.79 159.339 29.61 160.419 29.25L161.049 32.67C159.749 33.19 158.349 33.45 156.849 33.45ZM168.473 16.8H163.013V13.02H178.253V16.8H172.853V33H168.473V16.8ZM185.852 33.45C184.292 33.45 182.912 33.11 181.712 32.43C180.532 31.75 179.612 30.8 178.952 29.58C178.292 28.34 177.962 26.91 177.962 25.29C177.962 23.67 178.282 22.25 178.922 21.03C179.582 19.79 180.502 18.83 181.682 18.15C182.882 17.47 184.262 17.13 185.822 17.13C187.382 17.13 188.752 17.47 189.932 18.15C191.132 18.81 192.052 19.75 192.692 20.97C193.352 22.19 193.682 23.6 193.682 25.2C193.682 26.82 193.352 28.26 192.692 29.52C192.052 30.76 191.132 31.73 189.932 32.43C188.752 33.11 187.392 33.45 185.852 33.45ZM185.822 29.79C186.902 29.79 187.762 29.38 188.402 28.56C189.062 27.72 189.392 26.62 189.392 25.26C189.392 23.9 189.062 22.82 188.402 22.02C187.762 21.2 186.902 20.79 185.822 20.79C184.742 20.79 183.872 21.2 183.212 22.02C182.572 22.82 182.252 23.9 182.252 25.26C182.252 26.62 182.572 27.72 183.212 28.56C183.872 29.38 184.742 29.79 185.822 29.79ZM201.047 26.28V33H196.817V11.07H201.047V23.19L205.877 17.55H210.887L204.707 24.48L211.217 32.82L206.627 33.45L201.047 26.28Z" fill="#010101"/>
</svg>
