<svg width="231" height="53" viewBox="0 0 231 53" fill="none" xmlns="http://www.w3.org/2000/svg">
<mask id="mask0" mask-type="alpha" maskUnits="userSpaceOnUse" x="0" y="0" width="31" height="50">
<rect width="31" height="50" fill="#C4C4C4"/>
</mask>
<g mask="url(#mask0)">
<path d="M44.0476 0H5.95238C2.67024 0 0 2.67024 0 5.95238V44.0476C0 47.3298 2.67024 50 5.95238 50H44.0476C47.3298 50 50 47.3298 50 44.0476V5.95238C50 2.67024 47.3298 0 44.0476 0ZM39.2929 21.8131C39.0226 21.8381 38.7488 21.8548 38.4714 21.8548C35.3488 21.8548 32.6048 20.2488 31.0083 17.8214C31.0083 24.1893 31.0083 31.4345 31.0083 31.556C31.0083 37.1619 26.4631 41.7071 20.8571 41.7071C15.2512 41.7071 10.706 37.1619 10.706 31.556C10.706 25.95 15.2512 21.4048 20.8571 21.4048C21.069 21.4048 21.2762 21.4238 21.4845 21.4369V26.4393C21.2762 26.4143 21.0714 26.3762 20.8571 26.3762C17.9952 26.3762 15.6762 28.6952 15.6762 31.5571C15.6762 34.419 17.9952 36.7381 20.8571 36.7381C23.719 36.7381 26.2464 34.4833 26.2464 31.6214C26.2464 31.5083 26.2964 8.29524 26.2964 8.29524H31.0774C31.5274 12.5702 34.9786 15.944 39.2929 16.2536V21.8131Z" fill="white"/>
</g>
<rect x="31" width="8" height="50" fill="white"/>
<path d="M95.2857 0H38.1429C34.2143 0 31.0357 3.21429 31.0357 7.14286L31 42.8571C31 46.7857 34.2143 50 38.1429 50H95.2857C99.2143 50 102.429 46.7857 102.429 42.8571V7.14286C102.429 3.21429 99.2143 0 95.2857 0ZM63.1429 10.7143H70.2857V17.8571H63.1429V10.7143ZM63.1429 21.4286H70.2857V28.5714H63.1429V21.4286ZM52.4286 10.7143H59.5714V17.8571H52.4286V10.7143ZM52.4286 21.4286H59.5714V28.5714H52.4286V21.4286ZM48.8571 28.5714H41.7143V21.4286H48.8571V28.5714ZM48.8571 17.8571H41.7143V10.7143H48.8571V17.8571ZM77.4286 42.8571H56C54.0357 42.8571 52.4286 41.25 52.4286 39.2857C52.4286 37.3214 54.0357 35.7143 56 35.7143H77.4286C79.3929 35.7143 81 37.3214 81 39.2857C81 41.25 79.3929 42.8571 77.4286 42.8571ZM81 28.5714H73.8571V21.4286H81V28.5714ZM81 17.8571H73.8571V10.7143H81V17.8571ZM91.7143 28.5714H84.5714V21.4286H91.7143V28.5714ZM91.7143 17.8571H84.5714V10.7143H91.7143V17.8571Z" fill="white"/>
<path d="M123.632 18.56H117.08V14.024H135.368V18.56H128.888V38H123.632V18.56ZM144.666 38.54C141.666 38.54 139.302 37.676 137.574 35.948C135.87 34.22 135.018 31.82 135.018 28.748C135.018 26.756 135.39 25.028 136.134 23.564C136.878 22.076 137.922 20.936 139.266 20.144C140.634 19.352 142.23 18.956 144.054 18.956C146.742 18.956 148.806 19.82 150.246 21.548C151.686 23.276 152.406 25.772 152.406 29.036C152.406 29.588 152.394 29.996 152.37 30.26H140.13C140.37 31.532 140.922 32.504 141.786 33.176C142.65 33.824 143.814 34.148 145.278 34.148C146.166 34.148 147.09 34.04 148.05 33.824C149.01 33.584 149.85 33.272 150.57 32.888L151.398 36.956C150.438 37.46 149.37 37.844 148.194 38.108C147.042 38.396 145.866 38.54 144.666 38.54ZM147.546 26.444C147.474 25.412 147.114 24.596 146.466 23.996C145.818 23.372 144.954 23.06 143.874 23.06C142.842 23.06 141.99 23.36 141.318 23.96C140.67 24.56 140.262 25.388 140.094 26.444H147.546ZM165.019 38.54C161.947 38.54 159.559 37.724 157.855 36.092C156.175 34.46 155.335 32.156 155.335 29.18C155.335 27.164 155.731 25.388 156.523 23.852C157.315 22.292 158.431 21.092 159.871 20.252C161.311 19.388 162.979 18.956 164.875 18.956C165.763 18.956 166.687 19.064 167.647 19.28C168.631 19.472 169.387 19.7 169.915 19.964L168.943 24.248C168.391 23.984 167.779 23.78 167.107 23.636C166.459 23.468 165.847 23.384 165.271 23.384C163.783 23.384 162.583 23.888 161.671 24.896C160.783 25.904 160.339 27.236 160.339 28.892C160.339 30.572 160.795 31.868 161.707 32.78C162.643 33.692 163.963 34.148 165.667 34.148C166.795 34.148 168.007 33.932 169.303 33.5L170.059 37.604C168.499 38.228 166.819 38.54 165.019 38.54ZM178.968 18.56H172.416V14.024H190.704V18.56H184.224V38H178.968V18.56ZM199.822 38.54C197.95 38.54 196.294 38.132 194.854 37.316C193.438 36.5 192.334 35.36 191.542 33.896C190.75 32.408 190.354 30.692 190.354 28.748C190.354 26.804 190.738 25.1 191.506 23.636C192.298 22.148 193.402 20.996 194.818 20.18C196.258 19.364 197.914 18.956 199.786 18.956C201.658 18.956 203.302 19.364 204.718 20.18C206.158 20.972 207.262 22.1 208.03 23.564C208.822 25.028 209.218 26.72 209.218 28.64C209.218 30.584 208.822 32.312 208.03 33.824C207.262 35.312 206.158 36.476 204.718 37.316C203.302 38.132 201.67 38.54 199.822 38.54ZM199.786 34.148C201.082 34.148 202.114 33.656 202.882 32.672C203.674 31.664 204.07 30.344 204.07 28.712C204.07 27.08 203.674 25.784 202.882 24.824C202.114 23.84 201.082 23.348 199.786 23.348C198.49 23.348 197.446 23.84 196.654 24.824C195.886 25.784 195.502 27.08 195.502 28.712C195.502 30.344 195.886 31.664 196.654 32.672C197.446 33.656 198.49 34.148 199.786 34.148ZM218.057 29.936V38H212.981V11.684H218.057V26.228L223.853 19.46H229.865L222.449 27.776L230.261 37.784L224.753 38.54L218.057 29.936Z" fill="white"/>
</svg>
